# xmcd
# Copyright (C) 1995-1998 Ti Kan
#
# Track frame offsets:
#       150
#       17495
#       36611
#       62340
#       78113
#       100049
#       115904
#       124919
#       144593
#       170089
#       187002
#
# Disc length: 2703 seconds
#
# Revision: 0
# Processed by: cddbd v1.5.2PL0 Copyright (c) Steve Scherf et al.
# Submitted via: CD-Import v1.0
#
DISCID=910a8d0b
DTITLE=C. Gibbs and Lucinda Black Bear - Knives
DYEAR=11
DGENRE=
TTITLE0=Knives
TTITLE1=Percival
TTITLE2=Hand Bible
TTITLE3=Laugh At My Tears
TTITLE4=She's A Killer
TTITLE5=Buried In The Ivy
TTITLE6=Thunderlings Revolt!
TTITLE7=Suffocation Blues
TTITLE8=Up On The Mend
TTITLE9=Antiquity's Ash
TTITLE10=For A Thimbleful
EXTD=
EXTT0=
EXTT1=
EXTT2=
EXTT3=
EXTT4=
EXTT5=
EXTT6=
EXTT7=
EXTT8=
EXTT9=
EXTT10=
PLAYORDER=
